# xmcd CD database file
#
# Track frame offsets:
#	150
#	19065
#	40262
#	59185
#
# Disc length: 1070 seconds
#
# Revision: 0
# Processed by: cddbd v1.5PL3 Copyright (c) Steve Scherf et al.
# Submitted via: CDex 1.51
#
DISCID=33042c04
DTITLE=DROPS - ふられ気分でRock'n'Roll
DYEAR=2004
DGENRE=Seiyu
TTITLE0=ふられ気分でRock'n'Roll
TTITLE1=あなたが...すき
TTITLE2=ふられ気分でRock'n'Roll(Off Vo.Ver.)
TTITLE3=あなたが...すき(Off Vo. Ver.)
EXTD=YEAR: 2004
EXTT0=
EXTT1=
EXTT2=
EXTT3=
PLAYORDER=
